<svg version="1.1" xmlns="http://www.w3.org/2000/svg" viewBox="0 0 5915.585575826407 3188.432193291239" width="11831.171151652814" height="6376.864386582478" filter="invert(93%) hue-rotate(180deg)">
  <!-- svg-source:excalidraw -->
  
  <defs>
    <style class="style-fonts">
      @font-face {
        font-family: "Virgil";
        src: url("https://excalidraw.com/Virgil.woff2");
      }
      @font-face {
        font-family: "Cascadia";
        src: url("https://excalidraw.com/Cascadia.woff2");
      }
      @font-face {
        font-family: "Assistant";
        src: url("https://excalidraw.com/Assistant-Regular.woff2");
      }
    </style>
    
  </defs>
  <rect x="0" y="0" width="5915.585575826407" height="3188.432193291239" fill="#ffffff"></rect><g stroke-opacity="0.2" fill-opacity="0.2" stroke-linecap="round" transform="translate(910.5744001903959 1202.0499443737813) rotate(0 737.548523002601 743.8141051154872)"><path d="M922.5 186 C999.86 259.46, 1075.45 336.03, 1290.6 558 C1474.19 741.19, 1474.07 744.11, 1290.6 930 C1193.89 1027.03, 1094.48 1127.19, 922.5 1301.63 C738.32 1484.71, 740.89 1490.89, 553.5 1301.63 C445.29 1193.51, 336.8 1087.18, 184.5 930 C1.33 742.9, -2.41 741.8, 184.5 558 C280.66 457.73, 378.52 360.71, 553.5 186 C741.48 -3.01, 734.59 -1.41, 922.5 186" stroke="none" stroke-width="0" fill="#a5d8ff"></path><path d="M922.5 186 C1007.88 270.97, 1092.77 357.38, 1290.6 558 M922.5 186 C1014.48 280.91, 1108.47 375.48, 1290.6 558 M1290.6 558 C1475.35 745.78, 1473.17 745.66, 1290.6 930 M1290.6 558 C1476.43 742.33, 1475.54 742.03, 1290.6 930 M1290.6 930 C1152.06 1069.56, 1013.5 1209.71, 922.5 1301.63 M1290.6 930 C1147.51 1075.8, 1003.62 1221.13, 922.5 1301.63 M922.5 1301.63 C736.09 1489.31, 737.84 1488.34, 553.5 1301.63 M922.5 1301.63 C737.57 1487.23, 736.89 1489.02, 553.5 1301.63 M553.5 1301.63 C442.77 1189.96, 333.76 1080.42, 184.5 930 M553.5 1301.63 C466.55 1213.28, 379.16 1125.3, 184.5 930 M184.5 930 C-1.38 744.87, -1.18 742.45, 184.5 558 M184.5 930 C0.75 743.88, -2.04 743.89, 184.5 558 M184.5 558 C321.84 420.1, 458.71 283.27, 553.5 186 M184.5 558 C329.6 412.7, 474.23 266.85, 553.5 186 M553.5 186 C737.75 -0.83, 739.63 -0.7, 922.5 186 M553.5 186 C739.72 1.53, 740.05 1.34, 922.5 186" stroke="#1e1e1e" stroke-width="2" fill="none"></path></g><g stroke-opacity="0.9" fill-opacity="0.9" transform="translate(1479.6213820286105 1902.7569969315248) rotate(0 168.72727966308594 43.200000000000045)"><text x="168.72727966308594" y="34.762499999999996" font-family="Cascadia, Segoe UI Emoji" font-size="36px" fill="#1e1e1e" text-anchor="middle" style="white-space: pre;" direction="ltr" dominant-baseline="alphabetic">Node locations:</text><text x="168.72727966308594" y="77.96249999999999" font-family="Cascadia, Segoe UI Emoji" font-size="36px" fill="#1e1e1e" text-anchor="middle" style="white-space: pre;" direction="ltr" dominant-baseline="alphabetic">fsn1, hel1, nbg1</text></g><g stroke-opacity="0.3" fill-opacity="0.3" stroke-linecap="round" transform="translate(1413.6111355392604 770.6198617436196) rotate(0 244.3577024025608 163.80021809402433)"><path d="M32 0 C137.43 -0.42, 243.27 1.11, 456.72 0 C476.88 2.84, 486.03 9.92, 488.72 32 C485.89 100.43, 487.92 176.07, 488.72 295.6 C488.39 318.53, 479.76 328.57, 456.72 327.6 C365.32 328.82, 271.27 328.24, 32 327.6 C9.4 328.49, 2.17 314.74, 0 295.6 C4.65 217.3, -0.82 142.66, 0 32 C0.18 14.02, 12.2 3.42, 32 0" stroke="none" stroke-width="0" fill="#ffc9c9"></path><path d="M32 0 C129.81 0.23, 228.08 0.93, 456.72 0 M32 0 C118.95 2.62, 205.26 2.59, 456.72 0 M456.72 0 C479.21 -1.45, 489.1 8.95, 488.72 32 M456.72 0 C479.76 -1.77, 490.31 11.9, 488.72 32 M488.72 32 C489.36 92.25, 488.1 150.5, 488.72 295.6 M488.72 32 C488.8 124.86, 489.49 216.66, 488.72 295.6 M488.72 295.6 C488.34 316.59, 477.08 328.81, 456.72 327.6 M488.72 295.6 C488.66 318.47, 476.74 327.59, 456.72 327.6 M456.72 327.6 C345.37 329.66, 234.73 330.27, 32 327.6 M456.72 327.6 C314.43 326.3, 172.56 325.67, 32 327.6 M32 327.6 C11.32 327.49, -1.77 316.84, 0 295.6 M32 327.6 C12.25 325.34, -0.01 316.2, 0 295.6 M0 295.6 C0.18 237.65, -2.03 180.07, 0 32 M0 295.6 C1.68 229.39, 2.42 163.56, 0 32 M0 32 C1.5 12, 12.45 1.17, 32 0 M0 32 C-2.19 11.96, 12.43 0.7, 32 0" stroke="#e03131" stroke-width="2" fill="none"></path></g><g stroke-opacity="0.9" fill-opacity="0.9" transform="translate(1457.6052057396728 891.2200798376439) rotate(0 200.36363220214844 43.19999999999999)"><text x="200.36363220214844" y="34.762499999999996" font-family="Cascadia, Segoe UI Emoji" font-size="36px" fill="#1e1e1e" text-anchor="middle" style="white-space: pre;" direction="ltr" dominant-baseline="alphabetic">Coolify-master node</text><text x="200.36363220214844" y="77.96249999999999" font-family="Cascadia, Segoe UI Emoji" font-size="36px" fill="#1e1e1e" text-anchor="middle" style="white-space: pre;" direction="ltr" dominant-baseline="alphabetic">cpx11</text></g><g stroke-opacity="0.9" fill-opacity="0.9" stroke-linecap="round" transform="translate(1099.4369467359693 1793.6999124620336) rotate(0 170.960883365894 124.41655909873975)"><path d="M32 0 C92.81 2.07, 153.35 -0.7, 309.92 0 C330.12 -2.95, 342.51 10.99, 341.92 32 C344.27 74.07, 346.3 113.92, 341.92 216.83 C338.93 236.45, 332.86 250.16, 309.92 248.83 C234.04 247.16, 161.78 244.79, 32 248.83 C10.23 247.03, 3.24 241.64, 0 216.83 C3.33 180.17, 4.69 140.22, 0 32 C3.59 14.04, 10.9 3.48, 32 0" stroke="none" stroke-width="0" fill="#ffc9c9"></path><path d="M32 0 C86.37 1.76, 142.19 0.9, 309.92 0 M32 0 C140.52 -2.34, 248.3 -2.44, 309.92 0 M309.92 0 C332.74 -1.54, 343.31 11.74, 341.92 32 M309.92 0 C329.52 -0.88, 343.09 12.77, 341.92 32 M341.92 32 C343.13 100.1, 342.64 164.69, 341.92 216.83 M341.92 32 C341.59 102.84, 341.29 174.63, 341.92 216.83 M341.92 216.83 C341.87 239.5, 330.12 248.82, 309.92 248.83 M341.92 216.83 C341.01 240.23, 333.16 247.35, 309.92 248.83 M309.92 248.83 C221.36 250.04, 130.69 249.44, 32 248.83 M309.92 248.83 C214.73 247.13, 118.35 247.13, 32 248.83 M32 248.83 C12.04 246.86, -0.01 237.53, 0 216.83 M32 248.83 C8.75 250.24, -0.78 240.28, 0 216.83 M0 216.83 C-0.13 169.88, -0.35 126.08, 0 32 M0 216.83 C-0.76 169.74, -0.61 121.89, 0 32 M0 32 C-1.9 11.79, 12.2 0.61, 32 0 M0 32 C-1.16 11.63, 10.06 -0.58, 32 0" stroke="#1e1e1e" stroke-width="2" fill="none"></path></g><g stroke-opacity="0.9" fill-opacity="0.9" transform="translate(1154.3978301018633 1874.9164715607733) rotate(0 116 43.200000000000045)"><text x="116" y="34.762499999999996" font-family="Cascadia, Segoe UI Emoji" font-size="36px" fill="#1e1e1e" text-anchor="middle" style="white-space: pre;" direction="ltr" dominant-baseline="alphabetic">worker-node</text><text x="116" y="77.96249999999999" font-family="Cascadia, Segoe UI Emoji" font-size="36px" fill="#1e1e1e" text-anchor="middle" style="white-space: pre;" direction="ltr" dominant-baseline="alphabetic">cx21</text></g><g stroke-opacity="0.9" fill-opacity="0.9" stroke-linecap="round" transform="translate(1471.7915408732042 1448.1978130943082) rotate(0 170.960883365894 124.41655909873975)"><path d="M32 0 C136.43 -1.47, 243.07 1.05, 309.92 0 C328.34 2.89, 345.18 10.35, 341.92 32 C340.51 93.94, 345.11 160.64, 341.92 216.83 C340.82 235.76, 329.05 247.56, 309.92 248.83 C219.36 245.1, 131.96 249.16, 32 248.83 C7.66 245.42, -1.41 238.34, 0 216.83 C2.17 147.54, -1.19 74.98, 0 32 C-1.48 11.61, 11.86 1.93, 32 0" stroke="none" stroke-width="0" fill="#ffc9c9"></path><path d="M32 0 C135.73 -1.75, 238 0.63, 309.92 0 M32 0 C95.75 1.24, 158.89 2.25, 309.92 0 M309.92 0 C329.75 -0.77, 342.94 12.49, 341.92 32 M309.92 0 C332.73 0.27, 341.97 11.81, 341.92 32 M341.92 32 C344.07 94.68, 343.09 157.31, 341.92 216.83 M341.92 32 C341 84.95, 340.46 136.57, 341.92 216.83 M341.92 216.83 C341.13 239.96, 332.91 247.55, 309.92 248.83 M341.92 216.83 C342.39 236.74, 333.06 249.62, 309.92 248.83 M309.92 248.83 C235.76 246.44, 159.06 247.86, 32 248.83 M309.92 248.83 C228.59 247.97, 146.19 248.48, 32 248.83 M32 248.83 C9 250.05, -0.68 240.01, 0 216.83 M32 248.83 C9.4 247.75, -1.98 237.01, 0 216.83 M0 216.83 C0.3 178.67, 0.43 138.75, 0 32 M0 216.83 C-2.6 149.65, -0.88 81.65, 0 32 M0 32 C-1.01 11.51, 10.14 -0.5, 32 0 M0 32 C-1.79 10.01, 10.74 -0.74, 32 0" stroke="#1e1e1e" stroke-width="2" fill="none"></path></g><g stroke-opacity="0.9" fill-opacity="0.9" transform="translate(1526.7524242390982 1529.414372193048) rotate(0 116 43.200000000000045)"><text x="116" y="34.762499999999996" font-family="Cascadia, Segoe UI Emoji" font-size="36px" fill="#1e1e1e" text-anchor="middle" style="white-space: pre;" direction="ltr" dominant-baseline="alphabetic">worker-node</text><text x="116" y="77.96249999999999" font-family="Cascadia, Segoe UI Emoji" font-size="36px" fill="#1e1e1e" text-anchor="middle" style="white-space: pre;" direction="ltr" dominant-baseline="alphabetic">cx21</text></g><g stroke-opacity="0.9" fill-opacity="0.9" stroke-linecap="round" transform="translate(1477.1620398271052 2194.697167686747) rotate(0 170.960883365894 124.41655909873975)"><path d="M32 0 C90.39 1.88, 155.78 -0.59, 309.92 0 C332.85 1.71, 342.89 7.67, 341.92 32 C342.31 76.22, 341.21 123.99, 341.92 216.83 C342.81 240.34, 329.06 248.4, 309.92 248.83 C238.14 249.93, 169.91 252.69, 32 248.83 C14.02 250.37, 3.42 241.76, 0 216.83 C-1.7 145.03, 0.98 73.26, 0 32 C0.09 11.84, 12.51 1.28, 32 0" stroke="none" stroke-width="0" fill="#ffc9c9"></path><path d="M32 0 C87.49 -0.95, 143.89 -0.1, 309.92 0 M32 0 C93.38 -1.44, 156.31 -0.45, 309.92 0 M309.92 0 C332.54 0.23, 341.97 11.66, 341.92 32 M309.92 0 C332.17 0.57, 339.73 12.6, 341.92 32 M341.92 32 C342.24 84.99, 343.79 139.87, 341.92 216.83 M341.92 32 C340.48 100.69, 341.7 166.94, 341.92 216.83 M341.92 216.83 C342.33 236.93, 332.82 249.52, 309.92 248.83 M341.92 216.83 C341.21 236.59, 329.66 249.83, 309.92 248.83 M309.92 248.83 C242.92 248.17, 176.01 250.59, 32 248.83 M309.92 248.83 C253.27 248.62, 197.64 248.86, 32 248.83 M32 248.83 C9.56 247.89, -1.72 237.16, 0 216.83 M32 248.83 C8.72 247.43, -0.28 237.21, 0 216.83 M0 216.83 C1.98 148.11, 1.82 73.92, 0 32 M0 216.83 C-1.92 151.43, -1.68 84.93, 0 32 M0 32 C-1.56 10.1, 10.73 -0.65, 32 0 M0 32 C1.82 8.95, 10.19 -0.73, 32 0" stroke="#1e1e1e" stroke-width="2" fill="none"></path></g><g stroke-opacity="0.9" fill-opacity="0.9" transform="translate(1532.1229231929992 2275.9137267854867) rotate(0 116 43.200000000000045)"><text x="116" y="34.762499999999996" font-family="Cascadia, Segoe UI Emoji" font-size="36px" fill="#1e1e1e" text-anchor="middle" style="white-space: pre;" direction="ltr" dominant-baseline="alphabetic">worker-node</text><text x="116" y="77.96249999999999" font-family="Cascadia, Segoe UI Emoji" font-size="36px" fill="#1e1e1e" text-anchor="middle" style="white-space: pre;" direction="ltr" dominant-baseline="alphabetic">cx21</text></g><g stroke-opacity="0.9" fill-opacity="0.9" stroke-linecap="round" transform="translate(1849.5166339643429 1822.3425735495132) rotate(0 170.960883365894 124.41655909873975)"><path d="M32 0 C138.88 1.66, 244.05 -1.96, 309.92 0 C329.54 1.61, 343.25 9.57, 341.92 32 C340.77 77.26, 337.69 117.75, 341.92 216.83 C340.12 241.4, 334.73 245.83, 309.92 248.83 C255.45 250.21, 198.45 251.79, 32 248.83 C14.04 249.07, 3.48 236.69, 0 216.83 C-1.02 157.69, 0.74 97.49, 0 32 C-0.27 10.18, 10.01 -0.15, 32 0" stroke="none" stroke-width="0" fill="#ffc9c9"></path><path d="M32 0 C119.54 -0.52, 210.28 -2.75, 309.92 0 M32 0 C105.18 -1.86, 177.39 -1.57, 309.92 0 M309.92 0 C332.05 0.5, 340.02 12.35, 341.92 32 M309.92 0 C331.07 0.82, 341.49 10.27, 341.92 32 M341.92 32 C344.37 77.39, 343.03 124.26, 341.92 216.83 M341.92 32 C343.66 103.4, 344.23 176.39, 341.92 216.83 M341.92 216.83 C341.31 236.8, 329.87 249.7, 309.92 248.83 M341.92 216.83 C340.56 236.38, 332.01 248.71, 309.92 248.83 M309.92 248.83 C249.65 250.3, 191.91 249.02, 32 248.83 M309.92 248.83 C209.15 250.44, 108.57 250.42, 32 248.83 M32 248.83 C8.97 247.61, -0.25 237.33, 0 216.83 M32 248.83 C12.54 248.02, 1.72 239.7, 0 216.83 M0 216.83 C0.04 146.42, -0.47 71.93, 0 32 M0 216.83 C-0.3 153.34, 0.52 90.09, 0 32 M0 32 C1.58 9.17, 10.25 -0.63, 32 0 M0 32 C-1.88 11.04, 10.87 -1.86, 32 0" stroke="#1e1e1e" stroke-width="2" fill="none"></path></g><g stroke-opacity="0.9" fill-opacity="0.9" transform="translate(1904.4775173302369 1903.559132648253) rotate(0 116 43.200000000000045)"><text x="116" y="34.762499999999996" font-family="Cascadia, Segoe UI Emoji" font-size="36px" fill="#1e1e1e" text-anchor="middle" style="white-space: pre;" direction="ltr" dominant-baseline="alphabetic">worker-node</text><text x="116" y="77.96249999999999" font-family="Cascadia, Segoe UI Emoji" font-size="36px" fill="#1e1e1e" text-anchor="middle" style="white-space: pre;" direction="ltr" dominant-baseline="alphabetic">cx21</text></g><g stroke-linecap="round"><g stroke-opacity="0.9" fill-opacity="0.9" transform="translate(1531.7667334892694 1125.0727927011799) rotate(0 -0.04058910960503681 80.22878025854112)"><path d="M-0.9 -0.46 C-0.94 26.47, 0.33 135.25, 0.61 162.21 M0.82 -1.75 C0.61 24.81, 0.05 133.26, -0.02 160.66" stroke="#1e1e1e" stroke-width="2" fill="none"></path></g><g stroke-opacity="0.9" fill-opacity="0.9" transform="translate(1531.7667334892694 1125.0727927011799) rotate(0 -0.04058910960503681 80.22878025854112)"><path d="M-8.47 137.13 C-5.99 146.9, -0.27 155.86, -0.02 160.66 M-8.47 137.13 C-5.43 144.67, -4.15 152.6, -0.02 160.66" stroke="#1e1e1e" stroke-width="2" fill="none"></path></g><g stroke-opacity="0.9" fill-opacity="0.9" transform="translate(1531.7667334892694 1125.0727927011799) rotate(0 -0.04058910960503681 80.22878025854112)"><path d="M8.63 137.2 C4.79 146.82, 4.19 155.75, -0.02 160.66 M8.63 137.2 C6.34 144.81, 2.29 152.71, -0.02 160.66" stroke="#1e1e1e" stroke-width="2" fill="none"></path></g></g><mask></mask><g stroke-linecap="round"><g stroke-opacity="0.9" fill-opacity="0.9" transform="translate(1773.4345654507233 1277.2369297284158) rotate(0 0.1532863752670437 -77.25389259329313)"><path d="M0.61 1.1 C0.89 -24.76, 0.87 -129.56, 0.77 -155.6 M-0.53 0.63 C-0.26 -24.97, 0.26 -127.69, 0.23 -153.99" stroke="#1e1e1e" stroke-width="2" fill="none"></path></g><g stroke-opacity="0.9" fill-opacity="0.9" transform="translate(1773.4345654507233 1277.2369297284158) rotate(0 0.1532863752670437 -77.25389259329313)"><path d="M8.72 -130.48 C8.73 -134.44, 5.23 -140.96, 0.23 -153.99 M8.72 -130.48 C4.7 -137.84, 2.6 -146.55, 0.23 -153.99" stroke="#1e1e1e" stroke-width="2" fill="none"></path></g><g stroke-opacity="0.9" fill-opacity="0.9" transform="translate(1773.4345654507233 1277.2369297284158) rotate(0 0.1532863752670437 -77.25389259329313)"><path d="M-8.38 -130.52 C-4.53 -134.56, -4.19 -141.07, 0.23 -153.99 M-8.38 -130.52 C-6.42 -137.91, -2.54 -146.6, 0.23 -153.99" stroke="#1e1e1e" stroke-width="2" fill="none"></path></g></g><mask></mask><g stroke-opacity="0.5" fill-opacity="0.5" stroke-linecap="round" transform="translate(464.435435336366 767.1960168306368) rotate(0 80.94503598866675 1010.3923987696893)"><path d="M32 0 C63.33 -1.66, 98.21 1.42, 129.89 0 C153.39 -2.19, 161.46 8.86, 161.89 32 C174.13 794.39, 175.57 1559.25, 161.89 1988.78 C163.43 2013.54, 154.81 2024.15, 129.89 2020.78 C100.83 2021.25, 71.8 2020.15, 32 2020.78 C11.84 2022.63, 1.28 2009.85, 0 1988.78 C1.62 1428.04, 3.12 868.46, 0 32 C-0.99 14.19, 11.52 2.79, 32 0" stroke="none" stroke-width="0" fill="#b2f2bb"></path><path d="M32 0 C66.58 -0.58, 101.68 0.17, 129.89 0 M32 0 C63.73 -0.47, 95.44 -1, 129.89 0 M129.89 0 C150.26 1.21, 161.84 12, 161.89 32 M129.89 0 C149.92 -0.01, 160.98 12.73, 161.89 32 M161.89 32 C156.36 781.46, 157.13 1529.42, 161.89 1988.78 M161.89 32 C156.24 484.85, 156.6 938.3, 161.89 1988.78 M161.89 1988.78 C160.12 2010.02, 152.6 2018.82, 129.89 2020.78 M161.89 1988.78 C161.88 2009.39, 149.3 2022.19, 129.89 2020.78 M129.89 2020.78 C102.89 2018.52, 76.77 2018.55, 32 2020.78 M129.89 2020.78 C107.32 2020.03, 83.86 2021.04, 32 2020.78 M32 2020.78 C12.45 2021.95, -1.9 2011.24, 0 1988.78 M32 2020.78 C12.43 2021.49, -1.16 2011.08, 0 1988.78 M0 1988.78 C1.75 1453.05, 1.71 917.89, 0 32 M0 1988.78 C1.29 1547.94, 1.66 1106.63, 0 32 M0 32 C1.6 12.48, 10.49 0.89, 32 0 M0 32 C1.09 11.29, 8.75 -1.1, 32 0" stroke="#1e1e1e" stroke-width="2" fill="none"></path></g><g stroke-opacity="0.8" fill-opacity="0.8" transform="translate(471.5622874261071 1734.3884156003262) rotate(0 73.81818389892578 43.200000000000045)"><text x="73.81818389892578" y="34.762499999999996" font-family="Cascadia, Segoe UI Emoji" font-size="36px" fill="#1e1e1e" text-anchor="middle" style="white-space: pre;" direction="ltr" dominant-baseline="alphabetic">Load </text><text x="73.81818389892578" y="77.96249999999999" font-family="Cascadia, Segoe UI Emoji" font-size="36px" fill="#1e1e1e" text-anchor="middle" style="white-space: pre;" direction="ltr" dominant-baseline="alphabetic">Balacer</text></g><g stroke-linecap="round"><g stroke-opacity="0.9" fill-opacity="0.9" transform="translate(658.1609493569858 1121.4924600652453) rotate(0 223.89091745758446 282.16204932732313)"><path d="M0.48 0.3 C74.88 94.35, 371.9 470.91, 446.4 564.91 M-0.73 -0.59 C74.02 93.09, 373.95 469.52, 448.51 563.32" stroke="#1e1e1e" stroke-width="2" fill="none"></path></g><g stroke-opacity="0.9" fill-opacity="0.9" transform="translate(658.1609493569858 1121.4924600652453) rotate(0 223.89091745758446 282.16204932732313)"><path d="M427.19 550.27 C434.2 552.22, 441.83 557.91, 448.51 563.32 M427.19 550.27 C433.83 555.29, 441.44 559.73, 448.51 563.32" stroke="#1e1e1e" stroke-width="2" fill="none"></path></g><g stroke-opacity="0.9" fill-opacity="0.9" transform="translate(658.1609493569858 1121.4924600652453) rotate(0 223.89091745758446 282.16204932732313)"><path d="M440.57 539.62 C443.59 544.84, 447.17 553.75, 448.51 563.32 M440.57 539.62 C442.71 548.19, 445.83 556.2, 448.51 563.32" stroke="#1e1e1e" stroke-width="2" fill="none"></path></g></g><mask></mask><g stroke-linecap="round"><g stroke-opacity="0.9" fill-opacity="0.9" transform="translate(663.5314483108878 2691.4683209227233) rotate(0 220.46520752761865 -240.1134577589579)"><path d="M-1.14 1.01 C72.46 -78.93, 368.23 -399.18, 442.07 -479.34 M0.46 0.5 C73.85 -79.84, 367.64 -401.36, 441.08 -481.24" stroke="#1e1e1e" stroke-width="2" fill="none"></path></g><g stroke-opacity="0.9" fill-opacity="0.9" transform="translate(663.5314483108878 2691.4683209227233) rotate(0 220.46520752761865 -240.1134577589579)"><path d="M431.51 -458.14 C436.39 -466.06, 438.67 -474.13, 441.08 -481.24 M431.51 -458.14 C434.3 -464.06, 436.47 -471.27, 441.08 -481.24" stroke="#1e1e1e" stroke-width="2" fill="none"></path></g><g stroke-opacity="0.9" fill-opacity="0.9" transform="translate(663.5314483108878 2691.4683209227233) rotate(0 220.46520752761865 -240.1134577589579)"><path d="M418.9 -469.69 C428.1 -473.57, 434.66 -477.71, 441.08 -481.24 M418.9 -469.69 C425.2 -472.42, 430.94 -476.36, 441.08 -481.24" stroke="#1e1e1e" stroke-width="2" fill="none"></path></g></g><mask></mask><g stroke-opacity="0.9" fill-opacity="0.9" stroke-linecap="round" transform="translate(2881.485417800825 812.2419126562634) rotate(0 452.2522696861163 293.03003227103454)"><path d="M32 0 C234.22 4.42, 432.65 1.67, 872.5 0 C892.43 0.18, 907.86 12.2, 904.5 32 C908.35 239.57, 907.66 444.74, 904.5 554.06 C905.7 577.32, 893.92 587.23, 872.5 586.06 C577.04 585.34, 281.91 584.65, 32 586.06 C10.49 587.41, 2.53 574.4, 0 554.06 C0.52 345.92, -0.34 138.99, 0 32 C1.45 11, 9.56 -0.78, 32 0" stroke="none" stroke-width="0" fill="#ffd8a8"></path><path d="M32 0 C204.32 0.12, 375.93 -0.12, 872.5 0 M32 0 C334.71 -2.25, 637.71 -1.89, 872.5 0 M872.5 0 C895.49 -1.29, 904.92 9.43, 904.5 32 M872.5 0 C895.64 0.79, 903.8 9.09, 904.5 32 M904.5 32 C904.79 152.76, 905.37 272.28, 904.5 554.06 M904.5 32 C905.94 185.97, 905.61 340.43, 904.5 554.06 M904.5 554.06 C903.83 577.23, 892.73 585.11, 872.5 586.06 M904.5 554.06 C902.52 574.24, 891.89 584.66, 872.5 586.06 M872.5 586.06 C630.46 589.4, 389.5 589.51, 32 586.06 M872.5 586.06 C571.58 588.07, 269.83 588.11, 32 586.06 M32 586.06 C10.14 585.56, -1.56 574.83, 0 554.06 M32 586.06 C10.74 585.32, 1.82 573.68, 0 554.06 M0 554.06 C0.79 408.32, 0.01 263.08, 0 32 M0 554.06 C0.38 350.25, -0.15 146.04, 0 32 M0 32 C0.89 11.4, 10.06 -1.34, 32 0 M0 32 C-1.41 9.86, 11.23 1.39, 32 0" stroke="#1e1e1e" stroke-width="2" fill="none"></path></g><g stroke-opacity="0.8" fill-opacity="0.8" transform="translate(2924.5558637564727 842.0434546906333) rotate(0 409.18182373046875 263.2284902366646)"><text x="409.18182373046875" y="38.5121228613302" font-family="Cascadia, Segoe UI Emoji" font-size="39.88310458131283px" fill="#1e1e1e" text-anchor="middle" style="white-space: pre;" direction="ltr" dominant-baseline="alphabetic"></text><text x="409.18182373046875" y="86.3718483589056" font-family="Cascadia, Segoe UI Emoji" font-size="39.88310458131283px" fill="#1e1e1e" text-anchor="middle" style="white-space: pre;" direction="ltr" dominant-baseline="alphabetic">Postgres</text><text x="409.18182373046875" y="134.23157385648096" font-family="Cascadia, Segoe UI Emoji" font-size="39.88310458131283px" fill="#1e1e1e" text-anchor="middle" style="white-space: pre;" direction="ltr" dominant-baseline="alphabetic"></text><text x="409.18182373046875" y="182.09129935405636" font-family="Cascadia, Segoe UI Emoji" font-size="39.88310458131283px" fill="#1e1e1e" text-anchor="middle" style="white-space: pre;" direction="ltr" dominant-baseline="alphabetic">- 4 cores</text><text x="409.18182373046875" y="229.95102485163176" font-family="Cascadia, Segoe UI Emoji" font-size="39.88310458131283px" fill="#1e1e1e" text-anchor="middle" style="white-space: pre;" direction="ltr" dominant-baseline="alphabetic">- 1/4 Ram shared_buffers</text><text x="409.18182373046875" y="277.8107503492072" font-family="Cascadia, Segoe UI Emoji" font-size="39.88310458131283px" fill="#1e1e1e" text-anchor="middle" style="white-space: pre;" direction="ltr" dominant-baseline="alphabetic">- 1/4th system memory / </text><text x="409.18182373046875" y="325.67047584678255" font-family="Cascadia, Segoe UI Emoji" font-size="39.88310458131283px" fill="#1e1e1e" text-anchor="middle" style="white-space: pre;" direction="ltr" dominant-baseline="alphabetic">max_connections --&gt; work_mem (16mb </text><text x="409.18182373046875" y="373.5302013443579" font-family="Cascadia, Segoe UI Emoji" font-size="39.88310458131283px" fill="#1e1e1e" text-anchor="middle" style="white-space: pre;" direction="ltr" dominant-baseline="alphabetic">default)</text><text x="409.18182373046875" y="421.3899268419333" font-family="Cascadia, Segoe UI Emoji" font-size="39.88310458131283px" fill="#1e1e1e" text-anchor="middle" style="white-space: pre;" direction="ltr" dominant-baseline="alphabetic">- max_wal_size 1GB</text><text x="409.18182373046875" y="469.24965233950866" font-family="Cascadia, Segoe UI Emoji" font-size="39.88310458131283px" fill="#1e1e1e" text-anchor="middle" style="white-space: pre;" direction="ltr" dominant-baseline="alphabetic"></text><text x="409.18182373046875" y="517.1093778370841" font-family="Cascadia, Segoe UI Emoji" font-size="39.88310458131283px" fill="#1e1e1e" text-anchor="middle" style="white-space: pre;" direction="ltr" dominant-baseline="alphabetic">cx41</text></g><g stroke-opacity="0.9" fill-opacity="0.9" transform="translate(3217.7522804303194 736.381597933429) rotate(0 105.21818542480469 23.929862748787684)"><text x="105.21818542480469" y="38.5121228613302" font-family="Cascadia, Segoe UI Emoji" font-size="39.88310458131283px" fill="#1e1e1e" text-anchor="middle" style="white-space: pre;" direction="ltr" dominant-baseline="alphabetic">DB server</text></g><g stroke-opacity="0.9" fill-opacity="0.9" stroke-linecap="round" transform="translate(2847.4722577594425 2104.902979676084) rotate(0 495.0430853897723 314.6730462954224)"><path d="M32 0 C223.44 0.29, 413.57 1.11, 958.09 0 C982.79 0.24, 993.57 9.19, 990.09 32 C991.47 216.95, 992.18 401.48, 990.09 597.35 C989.82 618.19, 978.76 629.2, 958.09 629.35 C742.75 631.44, 526.79 632.18, 32 629.35 C13.45 632.86, -1.17 620.04, 0 597.35 C-2.08 416.89, -2.02 237.95, 0 32 C0 11.51, 11.11 3.41, 32 0" stroke="none" stroke-width="0" fill="#eaddd7"></path><path d="M32 0 C265.63 -0.36, 498.19 -0.22, 958.09 0 M32 0 C392.95 2.14, 754.04 2.52, 958.09 0 M958.09 0 C978.8 -1.37, 988.7 11.54, 990.09 32 M958.09 0 C978.06 -1.79, 990.84 10.54, 990.09 32 M990.09 32 C989.19 151.53, 989.72 270.39, 990.09 597.35 M990.09 32 C989.1 235.93, 988.98 440.05, 990.09 597.35 M990.09 597.35 C988.39 617.46, 979.17 628.51, 958.09 629.35 M990.09 597.35 C991.96 617.87, 981.14 630.88, 958.09 629.35 M958.09 629.35 C598.07 626.44, 237.39 625.42, 32 629.35 M958.09 629.35 C641.08 628.3, 324.71 628.28, 32 629.35 M32 629.35 C12.25 627.85, -0.41 618.05, 0 597.35 M32 629.35 C8.78 629.72, 0.21 616.82, 0 597.35 M0 597.35 C-1.69 382.8, -1.83 166.84, 0 32 M0 597.35 C-1.13 454.45, -1.25 311.96, 0 32 M0 32 C0.49 11.87, 9.45 -0.24, 32 0 M0 32 C-1.15 12.73, 12.89 -1.92, 32 0" stroke="#1e1e1e" stroke-width="2" fill="none"></path></g><g stroke-opacity="0.9" fill-opacity="0.9" transform="translate(3194.8789753513634 2203.576025971507) rotate(0 147.63636779785162 216)"><text x="147.63636779785156" y="34.762499999999996" font-family="Cascadia, Segoe UI Emoji" font-size="36px" fill="#1e1e1e" text-anchor="middle" style="white-space: pre;" direction="ltr" dominant-baseline="alphabetic">2 x cx21</text><text x="147.63636779785156" y="77.96249999999999" font-family="Cascadia, Segoe UI Emoji" font-size="36px" fill="#1e1e1e" text-anchor="middle" style="white-space: pre;" direction="ltr" dominant-baseline="alphabetic">100GB</text><text x="147.63636779785156" y="121.1625" font-family="Cascadia, Segoe UI Emoji" font-size="36px" fill="#1e1e1e" text-anchor="middle" style="white-space: pre;" direction="ltr" dominant-baseline="alphabetic"></text><text x="147.63636779785156" y="164.36249999999998" font-family="Cascadia, Segoe UI Emoji" font-size="36px" fill="#1e1e1e" text-anchor="middle" style="white-space: pre;" direction="ltr" dominant-baseline="alphabetic"></text><text x="147.63636779785156" y="207.56249999999997" font-family="Cascadia, Segoe UI Emoji" font-size="36px" fill="#1e1e1e" text-anchor="middle" style="white-space: pre;" direction="ltr" dominant-baseline="alphabetic"></text><text x="147.63636779785156" y="250.76249999999996" font-family="Cascadia, Segoe UI Emoji" font-size="36px" fill="#1e1e1e" text-anchor="middle" style="white-space: pre;" direction="ltr" dominant-baseline="alphabetic"></text><text x="147.63636779785156" y="293.9625" font-family="Cascadia, Segoe UI Emoji" font-size="36px" fill="#1e1e1e" text-anchor="middle" style="white-space: pre;" direction="ltr" dominant-baseline="alphabetic"></text><text x="147.63636779785156" y="337.16249999999997" font-family="Cascadia, Segoe UI Emoji" font-size="36px" fill="#1e1e1e" text-anchor="middle" style="white-space: pre;" direction="ltr" dominant-baseline="alphabetic"></text><text x="147.63636779785156" y="380.36249999999995" font-family="Cascadia, Segoe UI Emoji" font-size="36px" fill="#1e1e1e" text-anchor="middle" style="white-space: pre;" direction="ltr" dominant-baseline="alphabetic">Node locations</text><text x="147.63636779785156" y="423.56249999999994" font-family="Cascadia, Segoe UI Emoji" font-size="36px" fill="#1e1e1e" text-anchor="middle" style="white-space: pre;" direction="ltr" dominant-baseline="alphabetic">hel1, nbg1</text></g><g stroke-opacity="0.9" fill-opacity="0.9" transform="translate(3187.179407121052 2036.8410393352626) rotate(0 139.8545379638672 23.865365853658545)"><text x="139.8545379638672" y="38.408323170731705" font-family="Cascadia, Segoe UI Emoji" font-size="39.77560975609756px" fill="#1e1e1e" text-anchor="middle" style="white-space: pre;" direction="ltr" dominant-baseline="alphabetic">MinIO Backup</text></g><g stroke-opacity="0.9" fill-opacity="0.9" stroke-linecap="round" transform="translate(2931.672173175681 2267.562273634998) rotate(0 157.24427973688222 115.70805490072485)"><path d="M32 0 C134.97 -1.45, 233.03 0.73, 282.49 0 C305.75 0.09, 315.66 12.51, 314.49 32 C313.6 88.03, 311.87 144.18, 314.49 199.42 C315.84 223.28, 302.83 234.94, 282.49 231.42 C200.47 236.11, 120.91 236.19, 32 231.42 C11 230.31, -0.78 219.79, 0 199.42 C0.45 142.35, -3.46 75.01, 0 32 C-3.06 7.54, 8.77 -1.72, 32 0" stroke="none" stroke-width="0" fill="#a5d8ff"></path><path d="M32 0 C96.22 -1.35, 161.53 -0.41, 282.49 0 M32 0 C115.14 1.75, 198.92 0.76, 282.49 0 M282.49 0 C304.48 -0.11, 312.72 10.57, 314.49 32 M282.49 0 C305.41 -2.26, 314.48 9.93, 314.49 32 M314.49 32 C317.35 67.15, 314.57 102.78, 314.49 199.42 M314.49 32 C312.95 73.42, 313.88 115.33, 314.49 199.42 M314.49 199.42 C315.99 222.08, 305.61 232.58, 282.49 231.42 M314.49 199.42 C312.3 222.04, 305.58 232.12, 282.49 231.42 M282.49 231.42 C219.62 229.61, 157.1 230.93, 32 231.42 M282.49 231.42 C215.28 229.63, 147.73 230.02, 32 231.42 M32 231.42 C10.85 229.8, 1.6 222.56, 0 199.42 M32 231.42 C10.46 232.44, 1.09 221.37, 0 199.42 M0 199.42 C1.54 162.51, -0.54 125.59, 0 32 M0 199.42 C-1.02 154.97, -0.91 111.66, 0 32 M0 32 C1.93 9, 8.77 -0.78, 32 0 M0 32 C0.11 12.81, 11.65 2.18, 32 0" stroke="#1e1e1e" stroke-width="2" fill="none"></path></g><g stroke-opacity="0.9" fill-opacity="0.9" transform="translate(3018.9891839306297 2359.4049626820643) rotate(0 69.9272689819336 23.865365853658545)"><text x="69.9272689819336" y="38.408323170731705" font-family="Cascadia, Segoe UI Emoji" font-size="39.77560975609756px" fill="#1e1e1e" text-anchor="middle" style="white-space: pre;" direction="ltr" dominant-baseline="alphabetic">node 1</text></g><g stroke-opacity="0.9" fill-opacity="0.9" stroke-linecap="round" transform="translate(3436.0406176147376 2271.5181045717745) rotate(0 153.2884488001057 114.71909716653045)"><path d="M32 0 C96.39 -1.13, 158.56 0.33, 274.58 0 C297.19 -0.27, 306.09 10.01, 306.58 32 C305.95 83.49, 303.61 133.43, 306.58 197.44 C307.43 221.56, 299.42 228.26, 274.58 229.44 C192.93 229.98, 110.08 230.1, 32 229.44 C12.87 229.44, 0.84 219.22, 0 197.44 C-0.2 129.03, 0.96 65.16, 0 32 C-0.69 12.58, 10.25 -0.57, 32 0" stroke="none" stroke-width="0" fill="#a5d8ff"></path><path d="M32 0 C110.32 -2.09, 186.38 -2.72, 274.58 0 M32 0 C115.58 1.52, 197.88 1.52, 274.58 0 M274.58 0 C297.29 -1.97, 306.57 10.03, 306.58 32 M274.58 0 C293.99 1.4, 305.8 12.78, 306.58 32 M306.58 32 C304.79 70.81, 304.57 112.76, 306.58 197.44 M306.58 32 C308.67 75.42, 308.82 118.09, 306.58 197.44 M306.58 197.44 C304.67 219.89, 297.44 230.05, 274.58 229.44 M306.58 197.44 C305.41 219.74, 295.31 228.86, 274.58 229.44 M274.58 229.44 C220.18 230.81, 165.62 229.16, 32 229.44 M274.58 229.44 C209.55 229.1, 145.04 230.52, 32 229.44 M32 229.44 C10.49 230.33, 0.95 219.31, 0 197.44 M32 229.44 C8.75 228.34, 1.03 219.62, 0 197.44 M0 197.44 C0.4 153.34, 2.31 107.04, 0 32 M0 197.44 C1.79 148.96, -0.12 101.76, 0 32 M0 32 C0.1 12.53, 11.52 1.9, 32 0 M0 32 C2.29 12.82, 10.82 2.22, 32 0" stroke="#1e1e1e" stroke-width="2" fill="none"></path></g><g stroke-opacity="0.9" fill-opacity="0.9" transform="translate(3531.056338448535 2362.3718358846468) rotate(0 58.272727966308594 23.865365853658545)"><text x="58.272727966308594" y="38.408323170731705" font-family="Cascadia, Segoe UI Emoji" font-size="39.77560975609756px" fill="#1e1e1e" text-anchor="middle" style="white-space: pre;" direction="ltr" dominant-baseline="alphabetic">node2</text></g><g stroke-opacity="0.9" fill-opacity="0.9" stroke-linecap="round" transform="translate(2947.4954969227897 2641.388297160417) rotate(0 140.431998255581 29.389756097561076)"><path d="M14.69 0 C91.78 -2.11, 166.38 -2.43, 266.17 0 C275.82 -2.39, 280.68 6.25, 280.86 14.69 C281.57 28.36, 284.23 35.29, 280.86 44.08 C282.22 54.55, 277.41 59.11, 266.17 58.78 C200.24 57.8, 131.41 58.16, 14.69 58.78 C8.3 55.33, -3.46 50.82, 0 44.08 C-0.41 39.74, -0.14 30.99, 0 14.69 C-1.74 7.94, 4.08 -0.07, 14.69 0" stroke="none" stroke-width="0" fill="#b2f2bb"></path><path d="M14.69 0 C83.11 0.45, 148.85 1.95, 266.17 0 M14.69 0 C89.33 -0.7, 162.84 -0.16, 266.17 0 M266.17 0 C274.3 1.22, 280.19 6.74, 280.86 14.69 M266.17 0 C274.7 -1.09, 278.88 3.75, 280.86 14.69 M280.86 14.69 C279.85 22.65, 279.98 28.85, 280.86 44.08 M280.86 14.69 C280.18 26.03, 281.89 36.54, 280.86 44.08 M280.86 44.08 C279.85 54.72, 275.44 58.28, 266.17 58.78 M280.86 44.08 C279.07 53.23, 276.04 58.04, 266.17 58.78 M266.17 58.78 C170.37 57.02, 75.86 58.5, 14.69 58.78 M266.17 58.78 C211.03 61, 156.42 60.85, 14.69 58.78 M14.69 58.78 C3.23 57.83, 0.89 54.62, 0 44.08 M14.69 58.78 C4.2 57.24, -1.41 53.07, 0 44.08 M0 44.08 C-0.42 33.54, 1.62 26.93, 0 14.69 M0 44.08 C0.33 38.65, 0.71 32.31, 0 14.69 M0 14.69 C1.99 6.77, 5.03 1.93, 14.69 0 M0 14.69 C-0.95 5.5, 5.66 1.23, 14.69 0" stroke="#1e1e1e" stroke-width="2" fill="none"></path></g><g stroke-opacity="0.9" fill-opacity="0.9" transform="translate(3029.6547672120623 2646.9126874043195) rotate(0 58.272727966308594 23.86536585365843)"><text x="58.272727966308594" y="38.408323170731705" font-family="Cascadia, Segoe UI Emoji" font-size="39.77560975609756px" fill="#1e1e1e" text-anchor="middle" style="white-space: pre;" direction="ltr" dominant-baseline="alphabetic">drive</text></g><g stroke-opacity="0.9" fill-opacity="0.9" stroke-linecap="round" transform="translate(3461.753518703787 2642.377254894611) rotate(0 140.431998255581 29.389756097561076)"><path d="M14.69 0 C88.13 -1.27, 161.65 1.77, 266.17 0 C278.5 -0.99, 284.38 5.75, 280.86 14.69 C282.74 26.46, 282.83 37.21, 280.86 44.08 C279.76 53.1, 275.01 60.98, 266.17 58.78 C193.48 56.43, 112.42 56.75, 14.69 58.78 C1.77 56.88, -1.72 53.19, 0 44.08 C-1.68 36.74, -0.75 23.25, 0 14.69 C-3.17 1.62, 6.96 2.69, 14.69 0" stroke="none" stroke-width="0" fill="#b2f2bb"></path><path d="M14.69 0 C75.16 -2.11, 135.72 0.45, 266.17 0 M14.69 0 C64.69 1.15, 115.78 1.4, 266.17 0 M266.17 0 C274.86 -0.95, 279.14 3.9, 280.86 14.69 M266.17 0 C274.02 -1.41, 280.58 3.94, 280.86 14.69 M280.86 14.69 C282.09 27.69, 281.93 35.21, 280.86 44.08 M280.86 14.69 C280.58 25.58, 280.83 35.38, 280.86 44.08 M280.86 44.08 C279.3 53.31, 276.03 58.13, 266.17 58.78 M280.86 44.08 C282.68 52.16, 275.49 58.05, 266.17 58.78 M266.17 58.78 C209.98 60.27, 157.91 58.82, 14.69 58.78 M266.17 58.78 C178.89 58.94, 93.32 59.63, 14.69 58.78 M14.69 58.78 C4.29 57.44, -1.22 53.18, 0 44.08 M14.69 58.78 C5.47 60.17, -1.4 53.6, 0 44.08 M0 44.08 C-1.93 34.84, -1.05 29.49, 0 14.69 M0 44.08 C0.87 33.47, -0.06 21.94, 0 14.69 M0 14.69 C-0.82 5.42, 5.56 1.07, 14.69 0 M0 14.69 C0.05 5.65, 6.08 0.82, 14.69 0" stroke="#1e1e1e" stroke-width="2" fill="none"></path></g><g stroke-opacity="0.9" fill-opacity="0.9" transform="translate(3543.9127889930596 2647.9016451385132) rotate(0 58.272727966308594 23.86536585365843)"><text x="58.272727966308594" y="38.408323170731705" font-family="Cascadia, Segoe UI Emoji" font-size="39.77560975609756px" fill="#1e1e1e" text-anchor="middle" style="white-space: pre;" direction="ltr" dominant-baseline="alphabetic">drive</text></g><g stroke-linecap="round"><g stroke-opacity="0.9" fill-opacity="0.9" transform="translate(2344.497620882347 1842.9294862061417) rotate(0 233.5156457889251 -240.56215893224737)"><path d="M0.83 -1.18 C78.88 -81.49, 389.66 -402, 467.23 -481.94 M-0.2 0.81 C77.79 -79.32, 388.15 -400, 466.28 -480.6" stroke="#1e1e1e" stroke-width="4" fill="none"></path></g><g stroke-opacity="0.9" fill-opacity="0.9" transform="translate(2344.497620882347 1842.9294862061417) rotate(0 233.5156457889251 -240.56215893224737)"><path d="M456.08 -457.78 C456.28 -462.68, 459.77 -469.17, 466.28 -480.6 M456.08 -457.78 C459.29 -466.58, 462.66 -474.85, 466.28 -480.6" stroke="#1e1e1e" stroke-width="4" fill="none"></path></g><g stroke-opacity="0.9" fill-opacity="0.9" transform="translate(2344.497620882347 1842.9294862061417) rotate(0 233.5156457889251 -240.56215893224737)"><path d="M443.79 -469.67 C446.58 -472.15, 452.67 -476.12, 466.28 -480.6 M443.79 -469.67 C451.4 -474.3, 459.21 -478.27, 466.28 -480.6" stroke="#1e1e1e" stroke-width="4" fill="none"></path></g></g><mask></mask><g stroke-linecap="round"><g stroke-opacity="0.9" fill-opacity="0.9" transform="translate(2330.1762903386066 2041.6379475005317) rotate(0 228.63853084098028 240.05768169665748)"><path d="M0 -0.38 C76.07 79.9, 380.97 400.29, 457.28 480.5" stroke="#e03131" stroke-width="4.5" fill="none" stroke-dasharray="8 12"></path></g><g stroke-opacity="0.9" fill-opacity="0.9" transform="translate(2330.1762903386066 2041.6379475005317) rotate(0 228.63853084098028 240.05768169665748)"><path d="M434.89 469.37 C442.41 471.81, 452.52 476.9, 457.28 480.5" stroke="#e03131" stroke-width="4.5" fill="none"></path></g><g stroke-opacity="0.9" fill-opacity="0.9" transform="translate(2330.1762903386066 2041.6379475005317) rotate(0 228.63853084098028 240.05768169665748)"><path d="M447.28 457.58 C450.11 464.37, 455.65 473.81, 457.28 480.5" stroke="#e03131" stroke-width="4.5" fill="none"></path></g></g><mask></mask><g stroke-opacity="0.9" fill-opacity="0.9" stroke-linecap="round" transform="translate(4398.468080965913 1207.3562491568887) rotate(0 374.1515689417338 233.58247481596084)"><path d="M32 0 C219.51 0.24, 404.32 -0.62, 716.3 0 C738.31 1.45, 748.63 9.56, 748.3 32 C747.22 144.66, 747.47 258.28, 748.3 435.16 C744.85 453.03, 734.58 464.03, 716.3 467.16 C547.8 466.05, 377.53 465.52, 32 467.16 C13.7 466.35, -0.07 453.32, 0 435.16 C-2.59 352.2, -1.06 268.32, 0 32 C1.7 11.06, 11.44 -1.59, 32 0" stroke="none" stroke-width="0" fill="#d0bfff"></path><path d="M32 0 C237.55 2.01, 442.87 1.84, 716.3 0 M32 0 C204.6 1.13, 377.84 1.2, 716.3 0 M716.3 0 C739.27 -0.7, 749.8 12, 748.3 32 M716.3 0 C739.69 1.34, 746.12 11.96, 748.3 32 M748.3 32 C749.47 183.55, 748.71 334.8, 748.3 435.16 M748.3 32 C748.82 141.08, 748.26 250.81, 748.3 435.16 M748.3 435.16 C746.67 456.83, 737.82 465.54, 716.3 467.16 M748.3 435.16 C750.15 458.58, 737.43 468.19, 716.3 467.16 M716.3 467.16 C478.19 465.25, 241.13 464.64, 32 467.16 M716.3 467.16 C556.86 466.44, 396.97 466.15, 32 467.16 M32 467.16 C9.67 468.96, 1.93 454.83, 0 435.16 M32 467.16 C8.49 466.26, 0.11 458.64, 0 435.16 M0 435.16 C-1.1 297.07, -1.06 158.36, 0 32 M0 435.16 C-0.74 303.79, -0.46 172.24, 0 32 M0 32 C-0.15 10.4, 10.3 -0.08, 32 0 M0 32 C-1.53 10.55, 11.53 1.62, 32 0" stroke="#1e1e1e" stroke-width="2" fill="none"></path></g><g stroke-opacity="0.8" fill-opacity="0.8" transform="translate(4481.356008550225 1285.2979542371645) rotate(0 291.2636413574219 155.64076973568496)"><text x="291.2636413574219" y="41.747393965561336" font-family="Cascadia, Segoe UI Emoji" font-size="43.233547148801385px" fill="#1e1e1e" text-anchor="middle" style="white-space: pre;" direction="ltr" dominant-baseline="alphabetic">Gitea</text><text x="291.2636413574219" y="93.627650544123" font-family="Cascadia, Segoe UI Emoji" font-size="43.233547148801385px" fill="#1e1e1e" text-anchor="middle" style="white-space: pre;" direction="ltr" dominant-baseline="alphabetic">Private Docker registry</text><text x="291.2636413574219" y="145.50790712268466" font-family="Cascadia, Segoe UI Emoji" font-size="43.233547148801385px" fill="#1e1e1e" text-anchor="middle" style="white-space: pre;" direction="ltr" dominant-baseline="alphabetic">Plausible Analytics</text><text x="291.2636413574219" y="197.38816370124633" font-family="Cascadia, Segoe UI Emoji" font-size="43.233547148801385px" fill="#1e1e1e" text-anchor="middle" style="white-space: pre;" direction="ltr" dominant-baseline="alphabetic">Monitor tools</text><text x="291.2636413574219" y="249.268420279808" font-family="Cascadia, Segoe UI Emoji" font-size="43.233547148801385px" fill="#1e1e1e" text-anchor="middle" style="white-space: pre;" direction="ltr" dominant-baseline="alphabetic">etc</text><text x="291.2636413574219" y="301.14867685836964" font-family="Cascadia, Segoe UI Emoji" font-size="43.233547148801385px" fill="#1e1e1e" text-anchor="middle" style="white-space: pre;" direction="ltr" dominant-baseline="alphabetic"></text></g><g stroke-opacity="0.9" fill-opacity="0.9" transform="translate(4566.6032914843145 1135.5984711604547) rotate(0 171.36363220214844 26.99945946882366)"><text x="171.36363220214844" y="43.45225508263812" font-family="Cascadia, Segoe UI Emoji" font-size="44.99909911470614px" fill="#1e1e1e" text-anchor="middle" style="white-space: pre;" direction="ltr" dominant-baseline="alphabetic">Utils servers</text></g><g stroke-opacity="0.8" fill-opacity="0.8" stroke-linecap="round" transform="translate(4405.461568235853 2008.8098902918912) rotate(0 376.24961512271534 200.01373592025402)"><path d="M32 0 C264.65 -2.43, 496.73 -2.38, 720.5 0 C744.04 0, 753.34 11.11, 752.5 32 C746.53 162.48, 747.32 296.02, 752.5 368.03 C751.81 391.27, 741.41 399.46, 720.5 400.03 C547.17 397.64, 372.59 399.73, 32 400.03 C13.36 399.58, 2.22 391.63, 0 368.03 C-1.4 239.77, -1.88 115.03, 0 32 C1.88 11.98, 7.19 1.18, 32 0" stroke="none" stroke-width="0" fill="#d0bfff"></path><path d="M32 0 C200.17 1.7, 368.66 2.27, 720.5 0 M32 0 C210.22 1.24, 388.19 1.2, 720.5 0 M720.5 0 C739.93 1.12, 754.03 11.28, 752.5 32 M720.5 0 C740.67 0.97, 751.9 10.09, 752.5 32 M752.5 32 C751.42 107.67, 750.85 180.94, 752.5 368.03 M752.5 32 C750.71 121.63, 751.19 212.97, 752.5 368.03 M752.5 368.03 C752.32 390.25, 742.78 400.57, 720.5 400.03 M752.5 368.03 C750.59 388.26, 742.86 400.87, 720.5 400.03 M720.5 400.03 C534.66 398.54, 349.86 397.86, 32 400.03 M720.5 400.03 C522.61 402.17, 323.57 402.35, 32 400.03 M32 400.03 C10.77 401.89, 0.85 391.26, 0 368.03 M32 400.03 C12.96 402.18, 0.15 391.58, 0 368.03 M0 368.03 C0.13 281.07, -0.16 194.75, 0 32 M0 368.03 C0.05 255.24, -0.28 142.46, 0 32 M0 32 C0.75 12.07, 10.11 1.96, 32 0 M0 32 C0.54 12.45, 12.91 -0.75, 32 0" stroke="#1e1e1e" stroke-width="2" fill="none"></path></g><g stroke-opacity="0.8" fill-opacity="0.8" transform="translate(4617.083909798997 2131.0032413443028) rotate(0 164.6272735595703 77.82038486784245)"><text x="164.6272735595703" y="41.747393965561336" font-family="Cascadia, Segoe UI Emoji" font-size="43.233547148801385px" fill="#1e1e1e" text-anchor="middle" style="white-space: pre;" direction="ltr" dominant-baseline="alphabetic">Gitea runners</text><text x="164.6272735595703" y="93.627650544123" font-family="Cascadia, Segoe UI Emoji" font-size="43.233547148801385px" fill="#1e1e1e" text-anchor="middle" style="white-space: pre;" direction="ltr" dominant-baseline="alphabetic">CI/CD workers</text><text x="164.6272735595703" y="145.50790712268466" font-family="Cascadia, Segoe UI Emoji" font-size="43.233547148801385px" fill="#1e1e1e" text-anchor="middle" style="white-space: pre;" direction="ltr" dominant-baseline="alphabetic">etc</text></g><g stroke-linecap="round"><g stroke-opacity="0.8" fill-opacity="0.8" transform="translate(4569.109170352422 1703.893845322554) rotate(0 1.7441795833356082 131.02085920686523)"><path d="M-0.15 -0.5 C0.88 43.38, 4.3 218.49, 5.17 262.53 M-1.69 -1.81 C-0.64 42.3, 3.66 219.91, 4.74 263.85" stroke="#1e1e1e" stroke-width="2" fill="none"></path></g><g stroke-opacity="0.8" fill-opacity="0.8" transform="translate(4569.109170352422 1703.893845322554) rotate(0 1.7441795833356082 131.02085920686523)"><path d="M-4.38 240.57 C-3.39 247.22, -1.3 252.1, 4.74 263.85 M-4.38 240.57 C-1.78 249.61, 3.28 257.89, 4.74 263.85" stroke="#1e1e1e" stroke-width="2" fill="none"></path></g><g stroke-opacity="0.8" fill-opacity="0.8" transform="translate(4569.109170352422 1703.893845322554) rotate(0 1.7441795833356082 131.02085920686523)"><path d="M12.71 240.15 C10.02 246.87, 8.43 251.84, 4.74 263.85 M12.71 240.15 C9.05 249.45, 7.85 257.87, 4.74 263.85" stroke="#1e1e1e" stroke-width="2" fill="none"></path></g></g><mask></mask><g stroke-linecap="round"><g stroke-opacity="0.8" fill-opacity="0.8" transform="translate(5019.921689946899 1976.4155579881237) rotate(0 -1.398357836467767 -132.84083136667573)"><path d="M0.98 -0.42 C0.45 -44.27, -2.61 -219.68, -3.3 -263.56 M0.03 -1.69 C-0.56 -45.82, -3.21 -221.27, -3.77 -265.26" stroke="#1e1e1e" stroke-width="2" fill="none"></path></g><g stroke-opacity="0.8" fill-opacity="0.8" transform="translate(5019.921689946899 1976.4155579881237) rotate(0 -1.398357836467767 -132.84083136667573)"><path d="M5.11 -241.89 C1.94 -247.04, 1.42 -253.48, -3.77 -265.26 M5.11 -241.89 C2.91 -249.91, -1.54 -258.17, -3.77 -265.26" stroke="#1e1e1e" stroke-width="2" fill="none"></path></g><g stroke-opacity="0.8" fill-opacity="0.8" transform="translate(5019.921689946899 1976.4155579881237) rotate(0 -1.398357836467767 -132.84083136667573)"><path d="M-11.99 -241.65 C-10.23 -247.01, -5.84 -253.51, -3.77 -265.26 M-11.99 -241.65 C-8.06 -249.85, -6.38 -258.2, -3.77 -265.26" stroke="#1e1e1e" stroke-width="2" fill="none"></path></g></g><mask></mask><g stroke-linecap="round"><g stroke-opacity="0.9" fill-opacity="0.9" transform="translate(4367.385560185592 1456.2535615251666) rotate(0 -241.77587396639046 -171.98385879249787)"><path d="M0.9 0.8 C-79.94 -56.3, -402.87 -285.71, -484.06 -343.01 M-0.09 0.17 C-81.08 -57.23, -403.8 -287.23, -484.45 -344.77" stroke="#1e1e1e" stroke-width="4" fill="none"></path></g><g stroke-opacity="0.9" fill-opacity="0.9" transform="translate(4367.385560185592 1456.2535615251666) rotate(0 -241.77587396639046 -171.98385879249787)"><path d="M-460.36 -338.09 C-468.19 -338.67, -477.55 -344.91, -484.45 -344.77 M-460.36 -338.09 C-469.5 -339.97, -477.83 -343.02, -484.45 -344.77" stroke="#1e1e1e" stroke-width="4" fill="none"></path></g><g stroke-opacity="0.9" fill-opacity="0.9" transform="translate(4367.385560185592 1456.2535615251666) rotate(0 -241.77587396639046 -171.98385879249787)"><path d="M-470.28 -324.17 C-474.29 -330.13, -479.85 -341.68, -484.45 -344.77 M-470.28 -324.17 C-475.99 -331.04, -480.79 -339.05, -484.45 -344.77" stroke="#1e1e1e" stroke-width="4" fill="none"></path></g></g><mask></mask><g stroke-linecap="round"><g stroke-opacity="0.9" fill-opacity="0.9" transform="translate(4360.224894913723 2070.280608588012) rotate(0 -213.9600868817164 228.93332387405871)"><path d="M1.07 0.7 C-70.58 76.76, -357.66 381.14, -428.99 457.17" stroke="#e03131" stroke-width="4.5" fill="none" stroke-dasharray="8 12"></path></g><g stroke-opacity="0.9" fill-opacity="0.9" transform="translate(4360.224894913723 2070.280608588012) rotate(0 -213.9600868817164 228.93332387405871)"><path d="M-419.12 434.2 C-421.5 440.99, -425.24 453.04, -428.99 457.17" stroke="#e03131" stroke-width="4.5" fill="none"></path></g><g stroke-opacity="0.9" fill-opacity="0.9" transform="translate(4360.224894913723 2070.280608588012) rotate(0 -213.9600868817164 228.93332387405871)"><path d="M-406.66 445.92 C-413.79 448.43, -422.21 456.08, -428.99 457.17" stroke="#e03131" stroke-width="4.5" fill="none"></path></g></g><mask></mask><g stroke-linecap="round"><g stroke-opacity="0.9" fill-opacity="0.9" transform="translate(2407.1534420112043 1902.612482174378) rotate(0 981.795287571748 -14.17531252172705)"><path d="M-1.14 0.67 C326.14 -3.96, 1637.34 -22.49, 1964.73 -27.09 M0.46 -0.02 C327.57 -5.09, 1637.32 -24.19, 1964.27 -29.02" stroke="#1e1e1e" stroke-width="4" fill="none"></path></g><g stroke-opacity="0.9" fill-opacity="0.9" transform="translate(2407.1534420112043 1902.612482174378) rotate(0 981.795287571748 -14.17531252172705)"><path d="M-0.48 1.74 L12.41 -5.21 L13.57 7.53 L-1.29 0.4" stroke="none" stroke-width="0" fill="#1e1e1e" fill-rule="evenodd"></path><path d="M-1.14 0.67 C4.92 -0.59, 9.79 -5.04, 12.36 -5.86 M-1.14 0.67 C2.91 -1.74, 8.14 -4, 12.36 -5.86 M12.36 -5.86 C11.93 -2.09, 12.61 3.86, 12.54 6.82 M12.36 -5.86 C12.45 -2.8, 12.84 -0.14, 12.54 6.82 M12.54 6.82 C10.16 5.09, 5.63 3.3, -1.14 0.67 M12.54 6.82 C8.45 5.19, 4.91 4.32, -1.14 0.67 M-1.14 0.67 C-1.14 0.67, -1.14 0.67, -1.14 0.67 M-1.14 0.67 C-1.14 0.67, -1.14 0.67, -1.14 0.67" stroke="#1e1e1e" stroke-width="4" fill="none"></path></g><g stroke-opacity="0.9" fill-opacity="0.9" transform="translate(2407.1534420112043 1902.612482174378) rotate(0 981.795287571748 -14.17531252172705)"><path d="M1940.9 -20.13 C1951.07 -21.84, 1959.65 -27.84, 1964.27 -29.02 M1940.9 -20.13 C1948.14 -23.4, 1956.94 -26.48, 1964.27 -29.02" stroke="#1e1e1e" stroke-width="4" fill="none"></path></g><g stroke-opacity="0.9" fill-opacity="0.9" transform="translate(2407.1534420112043 1902.612482174378) rotate(0 981.795287571748 -14.17531252172705)"><path d="M1940.65 -37.23 C1951.01 -32.28, 1959.69 -31.63, 1964.27 -29.02 M1940.65 -37.23 C1947.93 -34.65, 1956.81 -31.88, 1964.27 -29.02" stroke="#1e1e1e" stroke-width="4" fill="none"></path></g></g><mask></mask><g stroke-linecap="round"><g stroke-opacity="0.9" fill-opacity="0.9" transform="translate(3318.3480978566517 2005.8346211411829) rotate(0 -1.6343370429408424 -292.25725816335)"><path d="M0.92 0.37 C0.41 -97.23, -3.39 -487.21, -4.19 -584.88" stroke="#e03131" stroke-width="4.5" fill="none" stroke-dasharray="8 12"></path></g><g stroke-opacity="0.9" fill-opacity="0.9" transform="translate(3318.3480978566517 2005.8346211411829) rotate(0 -1.6343370429408424 -292.25725816335)"><path d="M1.81 1.1 L-6.15 -14.51 L5.92 -13.99 L1.41 1.57" stroke="none" stroke-width="0" fill="#e03131" fill-rule="evenodd"></path><path d="M0.92 0.37 C-0.02 -3.12, -1.17 -5.53, -5.54 -13.17 M-5.54 -13.17 C-2.01 -13.58, 2.43 -14.14, 7.14 -13.28 M7.14 -13.28 C5.61 -9.39, 2.41 -4.51, 0.92 0.37 M0.92 0.37 C0.92 0.37, 0.92 0.37, 0.92 0.37" stroke="#e03131" stroke-width="4.5" fill="none"></path></g></g><mask></mask><g stroke-opacity="0.2" fill-opacity="0.2" stroke-linecap="round" transform="translate(421.85899538527156 552.2195709515911) rotate(0 1019.4997180824782 1211.9425972639822)"><path d="M32 0 C776.16 3.79, 1519.44 3.38, 2007 0 M32 0 C568.71 2.26, 1104.7 2.43, 2007 0 M2007 0 C2026.7 0.33, 2039.18 9.05, 2039 32 M2007 0 C2030.18 2.08, 2038.79 11.69, 2039 32 M2039 32 C2041.16 852.21, 2041.83 1671.46, 2039 2391.89 M2039 32 C2033.33 582.44, 2032.98 1132.35, 2039 2391.89 M2039 2391.89 C2038 2415.02, 2030.26 2422.22, 2007 2423.89 M2039 2391.89 C2036.82 2412.32, 2028.45 2426.03, 2007 2423.89 M2007 2423.89 C1330.89 2431.82, 654.05 2431.43, 32 2423.89 M2007 2423.89 C1362.53 2428.24, 718.25 2428.25, 32 2423.89 M32 2423.89 C10.52 2423.62, -0.37 2413.14, 0 2391.89 M32 2423.89 C9.14 2423.77, 0.86 2414.84, 0 2391.89 M0 2391.89 C-8.61 1749.86, -9.49 1106.58, 0 32 M0 2391.89 C-3.92 1639.85, -3.9 888.24, 0 32 M0 32 C0 11.13, 10.92 1.89, 32 0 M0 32 C-2.21 8.45, 8.71 -2, 32 0" stroke="#1e1e1e" stroke-width="4" fill="none"></path></g><g stroke-opacity="0.9" fill-opacity="0.9" transform="translate(1107.2058701285082 416.1669307860627) rotate(0 372.4545593261719 44.87216213357727)"><text x="372.4545593261719" y="72.21613593372592" font-family="Cascadia, Segoe UI Emoji" font-size="74.78693688929545px" fill="#1e1e1e" text-anchor="middle" style="white-space: pre;" direction="ltr" dominant-baseline="alphabetic">Deployment subnet</text></g><g stroke-opacity="0.2" fill-opacity="0.2" stroke-linecap="round" transform="translate(2544.1011653357205 559.3802362234615) rotate(0 730.38785773073 1211.942597263982)"><path d="M32 0 C414.21 4.38, 796.61 4.99, 1428.78 0 M32 0 C346.4 1.83, 661.49 1.44, 1428.78 0 M1428.78 0 C1451.71 1.81, 1460.6 11.55, 1460.78 32 M1428.78 0 C1451.2 0.62, 1458.86 9.57, 1460.78 32 M1460.78 32 C1463.72 844.89, 1463.97 1658.96, 1460.78 2391.89 M1460.78 32 C1454.82 882.66, 1455.41 1732.26, 1460.78 2391.89 M1460.78 2391.89 C1458.88 2412.44, 1450.21 2425.75, 1428.78 2423.89 M1460.78 2391.89 C1461.76 2415.4, 1452.4 2426.04, 1428.78 2423.89 M1428.78 2423.89 C1000.82 2421.85, 572.88 2421.61, 32 2423.89 M1428.78 2423.89 C964.18 2425.82, 499.58 2425.86, 32 2423.89 M32 2423.89 C9.34 2423.79, 0.75 2414.62, 0 2391.89 M32 2423.89 C10.03 2426.13, 0.54 2415, 0 2391.89 M0 2391.89 C3.23 1453.97, 3.15 515.16, 0 32 M0 2391.89 C2.52 1735.31, 2.57 1078.92, 0 32 M0 32 C-1.92 8.74, 8.97 -1.74, 32 0 M0 32 C-1.21 9.57, 10.23 1.22, 32 0" stroke="#1e1e1e" stroke-width="4" fill="none"></path></g><g stroke-opacity="0.9" fill-opacity="0.9" transform="translate(2914.097667643799 417.8390929196398) rotate(0 350.5454406738281 44.87216213357727)"><text x="350.5454406738281" y="72.21613593372592" font-family="Cascadia, Segoe UI Emoji" font-size="74.78693688929545px" fill="#1e1e1e" text-anchor="middle" style="white-space: pre;" direction="ltr" dominant-baseline="alphabetic">DB-Backup subnet</text></g><g stroke-opacity="0.2" fill-opacity="0.2" stroke-linecap="round" transform="translate(4097.070446172505 571.9114004492337) rotate(0 632.823793401501 1211.9425972639822)"><path d="M32 0 C395.7 -3.96, 760.34 -4.45, 1233.65 0 M32 0 C412.45 4.26, 792.22 4.07, 1233.65 0 M1233.65 0 C1255.93 0.54, 1263.98 9.71, 1265.65 32 M1233.65 0 C1256.01 0.85, 1264.95 9.13, 1265.65 32 M1265.65 32 C1262.8 595.17, 1262.23 1158.91, 1265.65 2391.89 M1265.65 32 C1274.39 951.97, 1274.78 1872.62, 1265.65 2391.89 M1265.65 2391.89 C1266.5 2415.12, 1256.98 2425.76, 1233.65 2423.89 M1265.65 2391.89 C1265.8 2415.44, 1254.03 2424.49, 1233.65 2423.89 M1233.65 2423.89 C833.54 2424.41, 433.19 2423.94, 32 2423.89 M1233.65 2423.89 C889.08 2423.67, 545.19 2423.97, 32 2423.89 M32 2423.89 C10.11 2425.84, 0.47 2414.77, 0 2391.89 M32 2423.89 C12.91 2423.13, 0.87 2413.65, 0 2391.89 M0 2391.89 C-1.04 1588.9, -0.37 786.35, 0 32 M0 2391.89 C-1.56 1628.44, -1.51 865.41, 0 32 M0 32 C-1.05 9.71, 10.28 1.06, 32 0 M0 32 C-0.27 10.3, 9.56 1.94, 32 0" stroke="#1e1e1e" stroke-width="4" fill="none"></path></g><g stroke-opacity="0.9" fill-opacity="0.9" transform="translate(4449.978571418551 433.95058978134693) rotate(0 262.9090881347656 44.87216213357727)"><text x="262.9090881347656" y="72.21613593372592" font-family="Cascadia, Segoe UI Emoji" font-size="74.78693688929545px" fill="#1e1e1e" text-anchor="middle" style="white-space: pre;" direction="ltr" dominant-baseline="alphabetic">Utils subnet</text></g><g stroke-opacity="0.2" fill-opacity="0.2" stroke-linecap="round" transform="translate(10 10) rotate(0 2947.7927879132035 1584.2160966456195)"><path d="M32 0 C1660.87 19.16, 3288.82 19.73, 5863.59 0 M32 0 C2309.99 -10.25, 4587.26 -10.55, 5863.59 0 M5863.59 0 C5885.81 0.74, 5894.98 9.33, 5895.59 32 M5863.59 0 C5883.51 -0.81, 5896.15 12.05, 5895.59 32 M5895.59 32 C5894.81 774.91, 5893.43 1515.51, 5895.59 3136.43 M5895.59 32 C5896.37 842.2, 5896.6 1652.01, 5895.59 3136.43 M5895.59 3136.43 C5895.72 3159.7, 5884.1 3168.96, 5863.59 3168.43 M5895.59 3136.43 C5896.35 3159, 5884.97 3169.18, 5863.59 3168.43 M5863.59 3168.43 C3814.85 3166.53, 1766.3 3166.15, 32 3168.43 M5863.59 3168.43 C4143.06 3185.22, 2422.85 3185.14, 32 3168.43 M32 3168.43 C12.62 3167.78, 0.75 3158.14, 0 3136.43 M32 3168.43 C11.59 3168.64, -0.71 3157.27, 0 3136.43 M0 3136.43 C-7.41 2287.96, -6.84 1438.51, 0 32 M0 3136.43 C10.34 2503.66, 10.48 1871.49, 0 32 M0 32 C-0.23 10.35, 9.7 1.69, 32 0 M0 32 C-0.52 10.62, 8.64 -2.1, 32 0" stroke="#1e1e1e" stroke-width="4" fill="none"></path></g><g stroke-opacity="0.9" fill-opacity="0.9" transform="translate(2399.158803743211 56.322202196384524) rotate(0 604.3636474609375 51.56265603815447)"><text x="604.3636474609375" y="82.98364956140486" font-family="Cascadia, Segoe UI Emoji" font-size="85.9377600635908px" fill="#1e1e1e" text-anchor="middle" style="white-space: pre;" direction="ltr" dominant-baseline="alphabetic">EU Central network (VPC)</text></g></svg>